<?xml version="1.0" encoding="UTF-8" standalone="no"?>
<!DOCTYPE svg PUBLIC "-//W3C//DTD SVG 1.1//EN"
 "http://www.w3.org/Graphics/SVG/1.1/DTD/svg11.dtd">
<!-- Generated by graphviz version 2.40.1 (20161225.0304)
 -->
<!-- Title: dependencies Pages: 1 -->
<svg width="3118pt" height="284pt"
 viewBox="0.00 0.00 3118.00 284.00" xmlns="http://www.w3.org/2000/svg" xmlns:xlink="http://www.w3.org/1999/xlink">
<g id="graph0" class="graph" transform="scale(1 1) rotate(0) translate(4 280)">
<title>dependencies</title>
<polygon fill="#ffffff" stroke="transparent" points="-4,4 -4,-280 3114,-280 3114,4 -4,4"/>
<text text-anchor="start" x="1534.0091" y="-42.4" font-family="sans-serif" font-weight="bold" font-size="14.00" fill="#000000">Legend</text>
<polygon fill="#ffffb3" stroke="transparent" points="1321,-10 1321,-30 1341,-30 1341,-10 1321,-10"/>
<text text-anchor="start" x="1344.629" y="-15.4" font-family="sans-serif" font-size="14.00" fill="#000000"> &#160;Declarations</text>
<polygon fill="#8dd3c7" stroke="transparent" points="1434,-10 1434,-30 1454,-30 1454,-10 1434,-10"/>
<text text-anchor="start" x="1457.7251" y="-15.4" font-family="sans-serif" font-size="14.00" fill="#000000"> &#160;Module</text>
<polygon fill="#80b1d3" stroke="transparent" points="1520,-10 1520,-30 1540,-30 1540,-10 1520,-10"/>
<text text-anchor="start" x="1543.7812" y="-15.4" font-family="sans-serif" font-size="14.00" fill="#000000"> &#160;Bootstrap</text>
<polygon fill="#fdb462" stroke="transparent" points="1617,-10 1617,-30 1637,-30 1637,-10 1617,-10"/>
<text text-anchor="start" x="1640.6732" y="-15.4" font-family="sans-serif" font-size="14.00" fill="#000000"> &#160;Providers</text>
<polygon fill="#fb8072" stroke="transparent" points="1713,-10 1713,-30 1733,-30 1733,-10 1713,-10"/>
<text text-anchor="start" x="1736.7258" y="-15.4" font-family="sans-serif" font-size="14.00" fill="#000000"> &#160;Exports</text>
<g id="clust1" class="cluster">
<title>cluster_AppModule</title>
<polygon fill="none" stroke="#000000" stroke-dasharray="1,5" points="8,-70 8,-268 3102,-268 3102,-70 8,-70"/>
</g>
<g id="clust2" class="cluster">
<title>cluster_AppModule_declarations</title>
<polygon fill="none" stroke="#000000" points="293,-78 293,-130 3094,-130 3094,-78 293,-78"/>
</g>
<g id="clust21" class="cluster">
<title>cluster_AppModule_imports</title>
<polygon fill="none" stroke="#000000" points="16,-78 16,-130 285,-130 285,-78 16,-78"/>
</g>
<g id="clust22" class="cluster">
<title>cluster_AppModule_exports</title>
<polygon fill="none" stroke="#000000" points="1421,-208 1421,-260 1591,-260 1591,-208 1421,-208"/>
</g>
<g id="clust23" class="cluster">
<title>cluster_AppModule_bootstrap</title>
<polygon fill="none" stroke="#000000" points="1599,-208 1599,-260 1723,-260 1723,-208 1599,-208"/>
</g>
<!-- AboutComponent -->
<g id="node1" class="node">
<title>AboutComponent</title>
<polygon fill="#ffffb3" stroke="#000000" points="3086.3301,-122 2969.6699,-122 2969.6699,-86 3086.3301,-86 3086.3301,-122"/>
<text text-anchor="middle" x="3028" y="-99.8" font-family="Times,serif" font-size="14.00" fill="#000000">AboutComponent</text>
</g>
<!-- AppModule -->
<g id="node19" class="node">
<title>AppModule</title>
<polygon fill="#8dd3c7" stroke="#000000" points="1624.6571,-187 1621.6571,-191 1600.6571,-191 1597.6571,-187 1541.3429,-187 1541.3429,-151 1624.6571,-151 1624.6571,-187"/>
<text text-anchor="middle" x="1583" y="-164.8" font-family="Times,serif" font-size="14.00" fill="#000000">AppModule</text>
</g>
<!-- AboutComponent&#45;&gt;AppModule -->
<g id="edge1" class="edge">
<title>AboutComponent&#45;&gt;AppModule</title>
<path fill="none" stroke="#000000" d="M3028,-122.1532C3028,-145.7566 3028,-184 3028,-184 3028,-184 1634.6877,-184 1634.6877,-184"/>
<polygon fill="#000000" stroke="#000000" points="1634.6877,-180.5001 1624.6877,-184 1634.6876,-187.5001 1634.6877,-180.5001"/>
</g>
<!-- AlojamientoComponent -->
<g id="node2" class="node">
<title>AlojamientoComponent</title>
<polygon fill="#ffffb3" stroke="#000000" points="2951.8215,-122 2800.1785,-122 2800.1785,-86 2951.8215,-86 2951.8215,-122"/>
<text text-anchor="middle" x="2876" y="-99.8" font-family="Times,serif" font-size="14.00" fill="#000000">AlojamientoComponent</text>
</g>
<!-- AlojamientoComponent&#45;&gt;AppModule -->
<g id="edge2" class="edge">
<title>AlojamientoComponent&#45;&gt;AppModule</title>
<path fill="none" stroke="#000000" d="M2876,-122.0109C2876,-144.4852 2876,-180 2876,-180 2876,-180 1634.9199,-180 1634.9199,-180"/>
<polygon fill="#000000" stroke="#000000" points="1634.92,-176.5001 1624.9199,-180 1634.9199,-183.5001 1634.92,-176.5001"/>
</g>
<!-- AppComponent -->
<g id="node3" class="node">
<title>AppComponent</title>
<polygon fill="#ffffb3" stroke="#000000" points="2782.9399,-122 2677.0601,-122 2677.0601,-86 2782.9399,-86 2782.9399,-122"/>
<text text-anchor="middle" x="2730" y="-99.8" font-family="Times,serif" font-size="14.00" fill="#000000">AppComponent</text>
</g>
<!-- AppComponent&#45;&gt;AppModule -->
<g id="edge3" class="edge">
<title>AppComponent&#45;&gt;AppModule</title>
<path fill="none" stroke="#000000" d="M2730,-122.0449C2730,-143.6623 2730,-177 2730,-177 2730,-177 1634.8407,-177 1634.8407,-177"/>
<polygon fill="#000000" stroke="#000000" points="1634.8407,-173.5001 1624.8407,-177 1634.8406,-180.5001 1634.8407,-173.5001"/>
</g>
<!-- ContactComponent -->
<g id="node4" class="node">
<title>ContactComponent</title>
<polygon fill="#ffffb3" stroke="#000000" points="2659.3795,-122 2534.6205,-122 2534.6205,-86 2659.3795,-86 2659.3795,-122"/>
<text text-anchor="middle" x="2597" y="-99.8" font-family="Times,serif" font-size="14.00" fill="#000000">ContactComponent</text>
</g>
<!-- ContactComponent&#45;&gt;AppModule -->
<g id="edge4" class="edge">
<title>ContactComponent&#45;&gt;AppModule</title>
<path fill="none" stroke="#000000" d="M2597,-122.1289C2597,-142.5724 2597,-173 2597,-173 2597,-173 1634.9593,-173 1634.9593,-173"/>
<polygon fill="#000000" stroke="#000000" points="1634.9594,-169.5001 1624.9593,-173 1634.9593,-176.5001 1634.9594,-169.5001"/>
</g>
<!-- DashboardComponent -->
<g id="node5" class="node">
<title>DashboardComponent</title>
<polygon fill="#ffffb3" stroke="#000000" points="2516.9734,-122 2375.0266,-122 2375.0266,-86 2516.9734,-86 2516.9734,-122"/>
<text text-anchor="middle" x="2446" y="-99.8" font-family="Times,serif" font-size="14.00" fill="#000000">DashboardComponent</text>
</g>
<!-- DashboardComponent&#45;&gt;AppModule -->
<g id="edge5" class="edge">
<title>DashboardComponent&#45;&gt;AppModule</title>
<path fill="none" stroke="#000000" d="M2446,-122.1061C2446,-141.3391 2446,-169 2446,-169 2446,-169 1634.9159,-169 1634.9159,-169"/>
<polygon fill="#000000" stroke="#000000" points="1634.916,-165.5001 1624.9159,-169 1634.9159,-172.5001 1634.916,-165.5001"/>
</g>
<!-- HomeComponent -->
<g id="node6" class="node">
<title>HomeComponent</title>
<polygon fill="#ffffb3" stroke="#000000" points="2356.5451,-122 2241.4549,-122 2241.4549,-86 2356.5451,-86 2356.5451,-122"/>
<text text-anchor="middle" x="2299" y="-99.8" font-family="Times,serif" font-size="14.00" fill="#000000">HomeComponent</text>
</g>
<!-- HomeComponent&#45;&gt;AppModule -->
<g id="edge6" class="edge">
<title>HomeComponent&#45;&gt;AppModule</title>
<path fill="none" stroke="#000000" d="M2299,-122.2667C2299,-140.5552 2299,-166 2299,-166 2299,-166 1634.8526,-166 1634.8526,-166"/>
<polygon fill="#000000" stroke="#000000" points="1634.8527,-162.5001 1624.8526,-166 1634.8526,-169.5001 1634.8527,-162.5001"/>
</g>
<!-- LoginComponent -->
<g id="node7" class="node">
<title>LoginComponent</title>
<polygon fill="#ffffb3" stroke="#000000" points="2223.2758,-122 2108.7242,-122 2108.7242,-86 2223.2758,-86 2223.2758,-122"/>
<text text-anchor="middle" x="2166" y="-99.8" font-family="Times,serif" font-size="14.00" fill="#000000">LoginComponent</text>
</g>
<!-- LoginComponent&#45;&gt;AppModule -->
<g id="edge7" class="edge">
<title>LoginComponent&#45;&gt;AppModule</title>
<path fill="none" stroke="#000000" d="M2166,-122.0336C2166,-139.0597 2166,-162 2166,-162 2166,-162 1634.9279,-162 1634.9279,-162"/>
<polygon fill="#000000" stroke="#000000" points="1634.928,-158.5001 1624.9279,-162 1634.9279,-165.5001 1634.928,-158.5001"/>
</g>
<!-- NoencontradoComponent -->
<g id="node8" class="node">
<title>NoencontradoComponent</title>
<polygon fill="#ffffb3" stroke="#000000" points="2090.1344,-122 1929.8656,-122 1929.8656,-86 2090.1344,-86 2090.1344,-122"/>
<text text-anchor="middle" x="2010" y="-99.8" font-family="Times,serif" font-size="14.00" fill="#000000">NoencontradoComponent</text>
</g>
<!-- NoencontradoComponent&#45;&gt;AppModule -->
<g id="edge8" class="edge">
<title>NoencontradoComponent&#45;&gt;AppModule</title>
<path fill="none" stroke="#000000" d="M2010,-122.0091C2010,-138.0494 2010,-159 2010,-159 2010,-159 1634.72,-159 1634.72,-159"/>
<polygon fill="#000000" stroke="#000000" points="1634.7201,-155.5001 1624.72,-159 1634.72,-162.5001 1634.7201,-155.5001"/>
</g>
<!-- PaneldeControlComponent -->
<g id="node9" class="node">
<title>PaneldeControlComponent</title>
<polygon fill="#ffffb3" stroke="#000000" points="1911.4283,-122 1742.5717,-122 1742.5717,-86 1911.4283,-86 1911.4283,-122"/>
<text text-anchor="middle" x="1827" y="-99.8" font-family="Times,serif" font-size="14.00" fill="#000000">PaneldeControlComponent</text>
</g>
<!-- PaneldeControlComponent&#45;&gt;AppModule -->
<g id="edge9" class="edge">
<title>PaneldeControlComponent&#45;&gt;AppModule</title>
<path fill="none" stroke="#000000" d="M1827,-122.1243C1827,-136.7832 1827,-155 1827,-155 1827,-155 1634.6679,-155 1634.6679,-155"/>
<polygon fill="#000000" stroke="#000000" points="1634.6679,-151.5001 1624.6679,-155 1634.6678,-158.5001 1634.6679,-151.5001"/>
</g>
<!-- RegistrarComponent -->
<g id="node10" class="node">
<title>RegistrarComponent</title>
<polygon fill="#ffffb3" stroke="#000000" points="1724.1457,-122 1591.8543,-122 1591.8543,-86 1724.1457,-86 1724.1457,-122"/>
<text text-anchor="middle" x="1658" y="-99.8" font-family="Times,serif" font-size="14.00" fill="#000000">RegistrarComponent</text>
</g>
<!-- RegistrarComponent&#45;&gt;AppModule -->
<g id="edge10" class="edge">
<title>RegistrarComponent&#45;&gt;AppModule</title>
<path fill="none" stroke="#000000" d="M1608.2528,-122.1061C1608.2528,-122.1061 1608.2528,-140.991 1608.2528,-140.991"/>
<polygon fill="#000000" stroke="#000000" points="1604.7529,-140.9909 1608.2528,-150.991 1611.7529,-140.991 1604.7529,-140.9909"/>
</g>
<!-- ReservasComponent -->
<g id="node11" class="node">
<title>ReservasComponent</title>
<polygon fill="#ffffb3" stroke="#000000" points="1573.8627,-122 1442.1373,-122 1442.1373,-86 1573.8627,-86 1573.8627,-122"/>
<text text-anchor="middle" x="1508" y="-99.8" font-family="Times,serif" font-size="14.00" fill="#000000">ReservasComponent</text>
</g>
<!-- ReservasComponent&#45;&gt;AppModule -->
<g id="edge11" class="edge">
<title>ReservasComponent&#45;&gt;AppModule</title>
<path fill="none" stroke="#000000" d="M1557.5516,-122.1061C1557.5516,-122.1061 1557.5516,-140.991 1557.5516,-140.991"/>
<polygon fill="#000000" stroke="#000000" points="1554.0516,-140.9909 1557.5516,-150.991 1561.0516,-140.991 1554.0516,-140.9909"/>
</g>
<!-- ReservasLoginComponent -->
<g id="node12" class="node">
<title>ReservasLoginComponent</title>
<polygon fill="#ffffb3" stroke="#000000" points="1423.8061,-122 1258.1939,-122 1258.1939,-86 1423.8061,-86 1423.8061,-122"/>
<text text-anchor="middle" x="1341" y="-99.8" font-family="Times,serif" font-size="14.00" fill="#000000">ReservasLoginComponent</text>
</g>
<!-- ReservasLoginComponent&#45;&gt;AppModule -->
<g id="edge12" class="edge">
<title>ReservasLoginComponent&#45;&gt;AppModule</title>
<path fill="none" stroke="#000000" d="M1341,-122.1243C1341,-136.7832 1341,-155 1341,-155 1341,-155 1531.1231,-155 1531.1231,-155"/>
<polygon fill="#000000" stroke="#000000" points="1531.1231,-158.5001 1541.1231,-155 1531.1231,-151.5001 1531.1231,-158.5001"/>
</g>
<!-- ReservasRegistrarComponent -->
<g id="node13" class="node">
<title>ReservasRegistrarComponent</title>
<polygon fill="#ffffb3" stroke="#000000" points="1240.6755,-122 1057.3245,-122 1057.3245,-86 1240.6755,-86 1240.6755,-122"/>
<text text-anchor="middle" x="1149" y="-99.8" font-family="Times,serif" font-size="14.00" fill="#000000">ReservasRegistrarComponent</text>
</g>
<!-- ReservasRegistrarComponent&#45;&gt;AppModule -->
<g id="edge13" class="edge">
<title>ReservasRegistrarComponent&#45;&gt;AppModule</title>
<path fill="none" stroke="#000000" d="M1149,-122.0091C1149,-138.0494 1149,-159 1149,-159 1149,-159 1530.9919,-159 1530.9919,-159"/>
<polygon fill="#000000" stroke="#000000" points="1530.9919,-162.5001 1540.9919,-159 1530.9919,-155.5001 1530.9919,-162.5001"/>
</g>
<!-- ReservasUsuarioComponent -->
<g id="node14" class="node">
<title>ReservasUsuarioComponent</title>
<polygon fill="#ffffb3" stroke="#000000" points="1039.1797,-122 862.8203,-122 862.8203,-86 1039.1797,-86 1039.1797,-122"/>
<text text-anchor="middle" x="951" y="-99.8" font-family="Times,serif" font-size="14.00" fill="#000000">ReservasUsuarioComponent</text>
</g>
<!-- ReservasUsuarioComponent&#45;&gt;AppModule -->
<g id="edge14" class="edge">
<title>ReservasUsuarioComponent&#45;&gt;AppModule</title>
<path fill="none" stroke="#000000" d="M951,-122.0336C951,-139.0597 951,-162 951,-162 951,-162 1531.0433,-162 1531.0433,-162"/>
<polygon fill="#000000" stroke="#000000" points="1531.0433,-165.5001 1541.0433,-162 1531.0432,-158.5001 1531.0433,-165.5001"/>
</g>
<!-- UsuarioComponent -->
<g id="node15" class="node">
<title>UsuarioComponent</title>
<polygon fill="#ffffb3" stroke="#000000" points="844.6499,-122 719.3501,-122 719.3501,-86 844.6499,-86 844.6499,-122"/>
<text text-anchor="middle" x="782" y="-99.8" font-family="Times,serif" font-size="14.00" fill="#000000">UsuarioComponent</text>
</g>
<!-- UsuarioComponent&#45;&gt;AppModule -->
<g id="edge15" class="edge">
<title>UsuarioComponent&#45;&gt;AppModule</title>
<path fill="none" stroke="#000000" d="M782,-122.2667C782,-140.5552 782,-166 782,-166 782,-166 1531.3424,-166 1531.3424,-166"/>
<polygon fill="#000000" stroke="#000000" points="1531.3425,-169.5001 1541.3424,-166 1531.3424,-162.5001 1531.3425,-169.5001"/>
</g>
<!-- confirmacion -->
<g id="node16" class="node">
<title>confirmacion</title>
<polygon fill="#ffffb3" stroke="#000000" points="701.1375,-122 610.8625,-122 610.8625,-86 701.1375,-86 701.1375,-122"/>
<text text-anchor="middle" x="656" y="-99.8" font-family="Times,serif" font-size="14.00" fill="#000000">confirmacion</text>
</g>
<!-- confirmacion&#45;&gt;AppModule -->
<g id="edge16" class="edge">
<title>confirmacion&#45;&gt;AppModule</title>
<path fill="none" stroke="#000000" d="M656,-122.1061C656,-141.3391 656,-169 656,-169 656,-169 1531.0644,-169 1531.0644,-169"/>
<polygon fill="#000000" stroke="#000000" points="1531.0644,-172.5001 1541.0644,-169 1531.0643,-165.5001 1531.0644,-172.5001"/>
</g>
<!-- confirmacionReserva -->
<g id="node17" class="node">
<title>confirmacionReserva</title>
<polygon fill="#ffffb3" stroke="#000000" points="592.7227,-122 457.2773,-122 457.2773,-86 592.7227,-86 592.7227,-122"/>
<text text-anchor="middle" x="525" y="-99.8" font-family="Times,serif" font-size="14.00" fill="#000000">confirmacionReserva</text>
</g>
<!-- confirmacionReserva&#45;&gt;AppModule -->
<g id="edge17" class="edge">
<title>confirmacionReserva&#45;&gt;AppModule</title>
<path fill="none" stroke="#000000" d="M525,-122.1289C525,-142.5724 525,-173 525,-173 525,-173 1531.1993,-173 1531.1993,-173"/>
<polygon fill="#000000" stroke="#000000" points="1531.1993,-176.5001 1541.1993,-173 1531.1992,-169.5001 1531.1993,-176.5001"/>
</g>
<!-- confirmacionServicio -->
<g id="node18" class="node">
<title>confirmacionServicio</title>
<polygon fill="#ffffb3" stroke="#000000" points="438.7907,-122 301.2093,-122 301.2093,-86 438.7907,-86 438.7907,-122"/>
<text text-anchor="middle" x="370" y="-99.8" font-family="Times,serif" font-size="14.00" fill="#000000">confirmacionServicio</text>
</g>
<!-- confirmacionServicio&#45;&gt;AppModule -->
<g id="edge18" class="edge">
<title>confirmacionServicio&#45;&gt;AppModule</title>
<path fill="none" stroke="#000000" d="M370,-122.0449C370,-143.6623 370,-177 370,-177 370,-177 1531.2458,-177 1531.2458,-177"/>
<polygon fill="#000000" stroke="#000000" points="1531.2458,-180.5001 1541.2458,-177 1531.2458,-173.5001 1531.2458,-180.5001"/>
</g>
<!-- AlojamientoComponent  -->
<g id="node22" class="node">
<title>AlojamientoComponent </title>
<polygon fill="#fb8072" stroke="#000000" points="1583.3213,-252 1428.6787,-252 1428.6787,-216 1583.3213,-216 1583.3213,-252"/>
<text text-anchor="middle" x="1506" y="-229.8" font-family="Times,serif" font-size="14.00" fill="#000000">AlojamientoComponent </text>
</g>
<!-- AppModule&#45;&gt;AlojamientoComponent  -->
<g id="edge21" class="edge">
<title>AppModule&#45;&gt;AlojamientoComponent </title>
<path fill="none" stroke="#000000" stroke-dasharray="5,2" d="M1562.2912,-187.1061C1562.2912,-187.1061 1562.2912,-205.991 1562.2912,-205.991"/>
<polygon fill="#000000" stroke="#000000" points="1558.7913,-205.9909 1562.2912,-215.991 1565.7913,-205.991 1558.7913,-205.9909"/>
</g>
<!-- AppComponent  -->
<g id="node23" class="node">
<title>AppComponent </title>
<polygon fill="#80b1d3" stroke="#000000" points="1715.439,-252 1606.561,-252 1606.561,-216 1715.439,-216 1715.439,-252"/>
<text text-anchor="middle" x="1661" y="-229.8" font-family="Times,serif" font-size="14.00" fill="#000000">AppComponent </text>
</g>
<!-- AppModule&#45;&gt;AppComponent  -->
<g id="edge22" class="edge">
<title>AppModule&#45;&gt;AppComponent </title>
<path fill="none" stroke="#000000" stroke-dasharray="1,5" d="M1615.6793,-187.1061C1615.6793,-187.1061 1615.6793,-205.991 1615.6793,-205.991"/>
<polygon fill="#000000" stroke="#000000" points="1612.1794,-205.9909 1615.6793,-215.991 1619.1794,-205.991 1612.1794,-205.9909"/>
</g>
<!-- AppRoutingModule -->
<g id="node20" class="node">
<title>AppRoutingModule</title>
<polygon fill="#8dd3c7" stroke="#000000" points="277.2744,-122 274.2744,-126 253.2744,-126 250.2744,-122 148.7256,-122 148.7256,-86 277.2744,-86 277.2744,-122"/>
<text text-anchor="middle" x="213" y="-99.8" font-family="Times,serif" font-size="14.00" fill="#000000">AppRoutingModule</text>
</g>
<!-- AppRoutingModule&#45;&gt;AppModule -->
<g id="edge19" class="edge">
<title>AppRoutingModule&#45;&gt;AppModule</title>
<path fill="none" stroke="#000000" d="M213,-122.0109C213,-144.4852 213,-180 213,-180 213,-180 1531.2506,-180 1531.2506,-180"/>
<polygon fill="#000000" stroke="#000000" points="1531.2506,-183.5001 1541.2506,-180 1531.2505,-176.5001 1531.2506,-183.5001"/>
</g>
<!-- MaterialModule -->
<g id="node21" class="node">
<title>MaterialModule</title>
<polygon fill="#8dd3c7" stroke="#000000" points="130.4706,-122 127.4706,-126 106.4706,-126 103.4706,-122 23.5294,-122 23.5294,-86 130.4706,-86 130.4706,-122"/>
<text text-anchor="middle" x="77" y="-99.8" font-family="Times,serif" font-size="14.00" fill="#000000">MaterialModule</text>
</g>
<!-- MaterialModule&#45;&gt;AppModule -->
<g id="edge20" class="edge">
<title>MaterialModule&#45;&gt;AppModule</title>
<path fill="none" stroke="#000000" d="M77,-122.1532C77,-145.7566 77,-184 77,-184 77,-184 1531.1491,-184 1531.1491,-184"/>
<polygon fill="#000000" stroke="#000000" points="1531.1492,-187.5001 1541.1491,-184 1531.1491,-180.5001 1531.1492,-187.5001"/>
</g>
</g>
</svg>
