<?xml version="1.0" encoding="UTF-8" standalone="no"?>
<!DOCTYPE svg PUBLIC "-//W3C//DTD SVG 1.1//EN"
 "http://www.w3.org/Graphics/SVG/1.1/DTD/svg11.dtd">
<!-- Generated by graphviz version 2.40.1 (20161225.0304)
 -->
<!-- Title: dependencies Pages: 1 -->
<svg width="2923pt" height="284pt"
 viewBox="0.00 0.00 2923.00 284.00" xmlns="http://www.w3.org/2000/svg" xmlns:xlink="http://www.w3.org/1999/xlink">
<g id="graph0" class="graph" transform="scale(1 1) rotate(0) translate(4 280)">
<title>dependencies</title>
<polygon fill="#ffffff" stroke="transparent" points="-4,4 -4,-280 2919,-280 2919,4 -4,4"/>
<text text-anchor="start" x="1436.5091" y="-42.4" font-family="sans-serif" font-weight="bold" font-size="14.00" fill="#000000">Legend</text>
<polygon fill="#ffffb3" stroke="transparent" points="1223.5,-10 1223.5,-30 1243.5,-30 1243.5,-10 1223.5,-10"/>
<text text-anchor="start" x="1247.129" y="-15.4" font-family="sans-serif" font-size="14.00" fill="#000000"> &#160;Declarations</text>
<polygon fill="#8dd3c7" stroke="transparent" points="1336.5,-10 1336.5,-30 1356.5,-30 1356.5,-10 1336.5,-10"/>
<text text-anchor="start" x="1360.2251" y="-15.4" font-family="sans-serif" font-size="14.00" fill="#000000"> &#160;Module</text>
<polygon fill="#80b1d3" stroke="transparent" points="1422.5,-10 1422.5,-30 1442.5,-30 1442.5,-10 1422.5,-10"/>
<text text-anchor="start" x="1446.2812" y="-15.4" font-family="sans-serif" font-size="14.00" fill="#000000"> &#160;Bootstrap</text>
<polygon fill="#fdb462" stroke="transparent" points="1519.5,-10 1519.5,-30 1539.5,-30 1539.5,-10 1519.5,-10"/>
<text text-anchor="start" x="1543.1732" y="-15.4" font-family="sans-serif" font-size="14.00" fill="#000000"> &#160;Providers</text>
<polygon fill="#fb8072" stroke="transparent" points="1615.5,-10 1615.5,-30 1635.5,-30 1635.5,-10 1615.5,-10"/>
<text text-anchor="start" x="1639.2258" y="-15.4" font-family="sans-serif" font-size="14.00" fill="#000000"> &#160;Exports</text>
<g id="clust1" class="cluster">
<title>cluster_AppModule</title>
<polygon fill="none" stroke="#000000" stroke-dasharray="1,5" points="8,-70 8,-268 2907,-268 2907,-70 8,-70"/>
</g>
<g id="clust2" class="cluster">
<title>cluster_AppModule_declarations</title>
<polygon fill="none" stroke="#000000" points="293,-78 293,-130 2899,-130 2899,-78 293,-78"/>
</g>
<g id="clust20" class="cluster">
<title>cluster_AppModule_imports</title>
<polygon fill="none" stroke="#000000" points="16,-78 16,-130 285,-130 285,-78 16,-78"/>
</g>
<g id="clust21" class="cluster">
<title>cluster_AppModule_exports</title>
<polygon fill="none" stroke="#000000" points="1301,-208 1301,-260 1471,-260 1471,-208 1301,-208"/>
</g>
<g id="clust22" class="cluster">
<title>cluster_AppModule_bootstrap</title>
<polygon fill="none" stroke="#000000" points="1479,-208 1479,-260 1603,-260 1603,-208 1479,-208"/>
</g>
<!-- AboutComponent -->
<g id="node1" class="node">
<title>AboutComponent</title>
<polygon fill="#ffffb3" stroke="#000000" points="2891.3301,-122 2774.6699,-122 2774.6699,-86 2891.3301,-86 2891.3301,-122"/>
<text text-anchor="middle" x="2833" y="-99.8" font-family="Times,serif" font-size="14.00" fill="#000000">AboutComponent</text>
</g>
<!-- AppModule -->
<g id="node18" class="node">
<title>AppModule</title>
<polygon fill="#8dd3c7" stroke="#000000" points="1504.6571,-187 1501.6571,-191 1480.6571,-191 1477.6571,-187 1421.3429,-187 1421.3429,-151 1504.6571,-151 1504.6571,-187"/>
<text text-anchor="middle" x="1463" y="-164.8" font-family="Times,serif" font-size="14.00" fill="#000000">AppModule</text>
</g>
<!-- AboutComponent&#45;&gt;AppModule -->
<g id="edge1" class="edge">
<title>AboutComponent&#45;&gt;AppModule</title>
<path fill="none" stroke="#000000" d="M2833,-122.1532C2833,-145.7566 2833,-184 2833,-184 2833,-184 1514.7494,-184 1514.7494,-184"/>
<polygon fill="#000000" stroke="#000000" points="1514.7495,-180.5001 1504.7494,-184 1514.7494,-187.5001 1514.7495,-180.5001"/>
</g>
<!-- AlojamientoComponent -->
<g id="node2" class="node">
<title>AlojamientoComponent</title>
<polygon fill="#ffffb3" stroke="#000000" points="2756.8215,-122 2605.1785,-122 2605.1785,-86 2756.8215,-86 2756.8215,-122"/>
<text text-anchor="middle" x="2681" y="-99.8" font-family="Times,serif" font-size="14.00" fill="#000000">AlojamientoComponent</text>
</g>
<!-- AlojamientoComponent&#45;&gt;AppModule -->
<g id="edge2" class="edge">
<title>AlojamientoComponent&#45;&gt;AppModule</title>
<path fill="none" stroke="#000000" d="M2681,-122.0109C2681,-144.4852 2681,-180 2681,-180 2681,-180 1514.9263,-180 1514.9263,-180"/>
<polygon fill="#000000" stroke="#000000" points="1514.9264,-176.5001 1504.9263,-180 1514.9263,-183.5001 1514.9264,-176.5001"/>
</g>
<!-- AppComponent -->
<g id="node3" class="node">
<title>AppComponent</title>
<polygon fill="#ffffb3" stroke="#000000" points="2587.9399,-122 2482.0601,-122 2482.0601,-86 2587.9399,-86 2587.9399,-122"/>
<text text-anchor="middle" x="2535" y="-99.8" font-family="Times,serif" font-size="14.00" fill="#000000">AppComponent</text>
</g>
<!-- AppComponent&#45;&gt;AppModule -->
<g id="edge3" class="edge">
<title>AppComponent&#45;&gt;AppModule</title>
<path fill="none" stroke="#000000" d="M2535,-122.0449C2535,-143.6623 2535,-177 2535,-177 2535,-177 1514.6947,-177 1514.6947,-177"/>
<polygon fill="#000000" stroke="#000000" points="1514.6947,-173.5001 1504.6947,-177 1514.6946,-180.5001 1514.6947,-173.5001"/>
</g>
<!-- ContactComponent -->
<g id="node4" class="node">
<title>ContactComponent</title>
<polygon fill="#ffffb3" stroke="#000000" points="2464.3795,-122 2339.6205,-122 2339.6205,-86 2464.3795,-86 2464.3795,-122"/>
<text text-anchor="middle" x="2402" y="-99.8" font-family="Times,serif" font-size="14.00" fill="#000000">ContactComponent</text>
</g>
<!-- ContactComponent&#45;&gt;AppModule -->
<g id="edge4" class="edge">
<title>ContactComponent&#45;&gt;AppModule</title>
<path fill="none" stroke="#000000" d="M2402,-122.1289C2402,-142.5724 2402,-173 2402,-173 2402,-173 1514.8647,-173 1514.8647,-173"/>
<polygon fill="#000000" stroke="#000000" points="1514.8647,-169.5001 1504.8647,-173 1514.8646,-176.5001 1514.8647,-169.5001"/>
</g>
<!-- DashboardComponent -->
<g id="node5" class="node">
<title>DashboardComponent</title>
<polygon fill="#ffffb3" stroke="#000000" points="2321.9734,-122 2180.0266,-122 2180.0266,-86 2321.9734,-86 2321.9734,-122"/>
<text text-anchor="middle" x="2251" y="-99.8" font-family="Times,serif" font-size="14.00" fill="#000000">DashboardComponent</text>
</g>
<!-- DashboardComponent&#45;&gt;AppModule -->
<g id="edge5" class="edge">
<title>DashboardComponent&#45;&gt;AppModule</title>
<path fill="none" stroke="#000000" d="M2251,-122.1061C2251,-141.3391 2251,-169 2251,-169 2251,-169 1514.8099,-169 1514.8099,-169"/>
<polygon fill="#000000" stroke="#000000" points="1514.81,-165.5001 1504.8099,-169 1514.8099,-172.5001 1514.81,-165.5001"/>
</g>
<!-- HomeComponent -->
<g id="node6" class="node">
<title>HomeComponent</title>
<polygon fill="#ffffb3" stroke="#000000" points="2161.5451,-122 2046.4549,-122 2046.4549,-86 2161.5451,-86 2161.5451,-122"/>
<text text-anchor="middle" x="2104" y="-99.8" font-family="Times,serif" font-size="14.00" fill="#000000">HomeComponent</text>
</g>
<!-- HomeComponent&#45;&gt;AppModule -->
<g id="edge6" class="edge">
<title>HomeComponent&#45;&gt;AppModule</title>
<path fill="none" stroke="#000000" d="M2104,-122.2667C2104,-140.5552 2104,-166 2104,-166 2104,-166 1515.0578,-166 1515.0578,-166"/>
<polygon fill="#000000" stroke="#000000" points="1515.0578,-162.5001 1505.0578,-166 1515.0578,-169.5001 1515.0578,-162.5001"/>
</g>
<!-- LoginComponent -->
<g id="node7" class="node">
<title>LoginComponent</title>
<polygon fill="#ffffb3" stroke="#000000" points="2028.2758,-122 1913.7242,-122 1913.7242,-86 2028.2758,-86 2028.2758,-122"/>
<text text-anchor="middle" x="1971" y="-99.8" font-family="Times,serif" font-size="14.00" fill="#000000">LoginComponent</text>
</g>
<!-- LoginComponent&#45;&gt;AppModule -->
<g id="edge7" class="edge">
<title>LoginComponent&#45;&gt;AppModule</title>
<path fill="none" stroke="#000000" d="M1971,-122.0336C1971,-139.0597 1971,-162 1971,-162 1971,-162 1515.004,-162 1515.004,-162"/>
<polygon fill="#000000" stroke="#000000" points="1515.004,-158.5001 1505.004,-162 1515.0039,-165.5001 1515.004,-158.5001"/>
</g>
<!-- NoencontradoComponent -->
<g id="node8" class="node">
<title>NoencontradoComponent</title>
<polygon fill="#ffffb3" stroke="#000000" points="1895.1344,-122 1734.8656,-122 1734.8656,-86 1895.1344,-86 1895.1344,-122"/>
<text text-anchor="middle" x="1815" y="-99.8" font-family="Times,serif" font-size="14.00" fill="#000000">NoencontradoComponent</text>
</g>
<!-- NoencontradoComponent&#45;&gt;AppModule -->
<g id="edge8" class="edge">
<title>NoencontradoComponent&#45;&gt;AppModule</title>
<path fill="none" stroke="#000000" d="M1815,-122.0091C1815,-138.0494 1815,-159 1815,-159 1815,-159 1514.7613,-159 1514.7613,-159"/>
<polygon fill="#000000" stroke="#000000" points="1514.7613,-155.5001 1504.7613,-159 1514.7613,-162.5001 1514.7613,-155.5001"/>
</g>
<!-- PaneldeControlComponent -->
<g id="node9" class="node">
<title>PaneldeControlComponent</title>
<polygon fill="#ffffb3" stroke="#000000" points="1716.4283,-122 1547.5717,-122 1547.5717,-86 1716.4283,-86 1716.4283,-122"/>
<text text-anchor="middle" x="1632" y="-99.8" font-family="Times,serif" font-size="14.00" fill="#000000">PaneldeControlComponent</text>
</g>
<!-- PaneldeControlComponent&#45;&gt;AppModule -->
<g id="edge9" class="edge">
<title>PaneldeControlComponent&#45;&gt;AppModule</title>
<path fill="none" stroke="#000000" d="M1571.6278,-122.1243C1571.6278,-136.7832 1571.6278,-155 1571.6278,-155 1571.6278,-155 1514.6877,-155 1514.6877,-155"/>
<polygon fill="#000000" stroke="#000000" points="1514.6877,-151.5001 1504.6877,-155 1514.6876,-158.5001 1514.6877,-151.5001"/>
</g>
<!-- RegistrarComponent -->
<g id="node10" class="node">
<title>RegistrarComponent</title>
<polygon fill="#ffffb3" stroke="#000000" points="1529.1457,-122 1396.8543,-122 1396.8543,-86 1529.1457,-86 1529.1457,-122"/>
<text text-anchor="middle" x="1463" y="-99.8" font-family="Times,serif" font-size="14.00" fill="#000000">RegistrarComponent</text>
</g>
<!-- RegistrarComponent&#45;&gt;AppModule -->
<g id="edge10" class="edge">
<title>RegistrarComponent&#45;&gt;AppModule</title>
<path fill="none" stroke="#000000" d="M1463,-122.1061C1463,-122.1061 1463,-140.991 1463,-140.991"/>
<polygon fill="#000000" stroke="#000000" points="1459.5001,-140.9909 1463,-150.991 1466.5001,-140.991 1459.5001,-140.9909"/>
</g>
<!-- ReservasComponent -->
<g id="node11" class="node">
<title>ReservasComponent</title>
<polygon fill="#ffffb3" stroke="#000000" points="1378.8627,-122 1247.1373,-122 1247.1373,-86 1378.8627,-86 1378.8627,-122"/>
<text text-anchor="middle" x="1313" y="-99.8" font-family="Times,serif" font-size="14.00" fill="#000000">ReservasComponent</text>
</g>
<!-- ReservasComponent&#45;&gt;AppModule -->
<g id="edge11" class="edge">
<title>ReservasComponent&#45;&gt;AppModule</title>
<path fill="none" stroke="#000000" d="M1343.7604,-122.1243C1343.7604,-136.7832 1343.7604,-155 1343.7604,-155 1343.7604,-155 1411.2958,-155 1411.2958,-155"/>
<polygon fill="#000000" stroke="#000000" points="1411.2958,-158.5001 1421.2958,-155 1411.2957,-151.5001 1411.2958,-158.5001"/>
</g>
<!-- ReservasLoginComponent -->
<g id="node12" class="node">
<title>ReservasLoginComponent</title>
<polygon fill="#ffffb3" stroke="#000000" points="1228.8061,-122 1063.1939,-122 1063.1939,-86 1228.8061,-86 1228.8061,-122"/>
<text text-anchor="middle" x="1146" y="-99.8" font-family="Times,serif" font-size="14.00" fill="#000000">ReservasLoginComponent</text>
</g>
<!-- ReservasLoginComponent&#45;&gt;AppModule -->
<g id="edge12" class="edge">
<title>ReservasLoginComponent&#45;&gt;AppModule</title>
<path fill="none" stroke="#000000" d="M1146,-122.0091C1146,-138.0494 1146,-159 1146,-159 1146,-159 1411.2318,-159 1411.2318,-159"/>
<polygon fill="#000000" stroke="#000000" points="1411.2318,-162.5001 1421.2318,-159 1411.2318,-155.5001 1411.2318,-162.5001"/>
</g>
<!-- ReservasRegistrarComponent -->
<g id="node13" class="node">
<title>ReservasRegistrarComponent</title>
<polygon fill="#ffffb3" stroke="#000000" points="1045.6755,-122 862.3245,-122 862.3245,-86 1045.6755,-86 1045.6755,-122"/>
<text text-anchor="middle" x="954" y="-99.8" font-family="Times,serif" font-size="14.00" fill="#000000">ReservasRegistrarComponent</text>
</g>
<!-- ReservasRegistrarComponent&#45;&gt;AppModule -->
<g id="edge13" class="edge">
<title>ReservasRegistrarComponent&#45;&gt;AppModule</title>
<path fill="none" stroke="#000000" d="M954,-122.0336C954,-139.0597 954,-162 954,-162 954,-162 1410.9134,-162 1410.9134,-162"/>
<polygon fill="#000000" stroke="#000000" points="1410.9134,-165.5001 1420.9134,-162 1410.9133,-158.5001 1410.9134,-165.5001"/>
</g>
<!-- UsuarioComponent -->
<g id="node14" class="node">
<title>UsuarioComponent</title>
<polygon fill="#ffffb3" stroke="#000000" points="844.6499,-122 719.3501,-122 719.3501,-86 844.6499,-86 844.6499,-122"/>
<text text-anchor="middle" x="782" y="-99.8" font-family="Times,serif" font-size="14.00" fill="#000000">UsuarioComponent</text>
</g>
<!-- UsuarioComponent&#45;&gt;AppModule -->
<g id="edge14" class="edge">
<title>UsuarioComponent&#45;&gt;AppModule</title>
<path fill="none" stroke="#000000" d="M782,-122.2667C782,-140.5552 782,-166 782,-166 782,-166 1411.1703,-166 1411.1703,-166"/>
<polygon fill="#000000" stroke="#000000" points="1411.1703,-169.5001 1421.1703,-166 1411.1702,-162.5001 1411.1703,-169.5001"/>
</g>
<!-- confirmacion -->
<g id="node15" class="node">
<title>confirmacion</title>
<polygon fill="#ffffb3" stroke="#000000" points="701.1375,-122 610.8625,-122 610.8625,-86 701.1375,-86 701.1375,-122"/>
<text text-anchor="middle" x="656" y="-99.8" font-family="Times,serif" font-size="14.00" fill="#000000">confirmacion</text>
</g>
<!-- confirmacion&#45;&gt;AppModule -->
<g id="edge15" class="edge">
<title>confirmacion&#45;&gt;AppModule</title>
<path fill="none" stroke="#000000" d="M656,-122.1061C656,-141.3391 656,-169 656,-169 656,-169 1411.3115,-169 1411.3115,-169"/>
<polygon fill="#000000" stroke="#000000" points="1411.3116,-172.5001 1421.3115,-169 1411.3115,-165.5001 1411.3116,-172.5001"/>
</g>
<!-- confirmacionReserva -->
<g id="node16" class="node">
<title>confirmacionReserva</title>
<polygon fill="#ffffb3" stroke="#000000" points="592.7227,-122 457.2773,-122 457.2773,-86 592.7227,-86 592.7227,-122"/>
<text text-anchor="middle" x="525" y="-99.8" font-family="Times,serif" font-size="14.00" fill="#000000">confirmacionReserva</text>
</g>
<!-- confirmacionReserva&#45;&gt;AppModule -->
<g id="edge16" class="edge">
<title>confirmacionReserva&#45;&gt;AppModule</title>
<path fill="none" stroke="#000000" d="M525,-122.1289C525,-142.5724 525,-173 525,-173 525,-173 1411.1799,-173 1411.1799,-173"/>
<polygon fill="#000000" stroke="#000000" points="1411.18,-176.5001 1421.1799,-173 1411.1799,-169.5001 1411.18,-176.5001"/>
</g>
<!-- confirmacionServicio -->
<g id="node17" class="node">
<title>confirmacionServicio</title>
<polygon fill="#ffffb3" stroke="#000000" points="438.7907,-122 301.2093,-122 301.2093,-86 438.7907,-86 438.7907,-122"/>
<text text-anchor="middle" x="370" y="-99.8" font-family="Times,serif" font-size="14.00" fill="#000000">confirmacionServicio</text>
</g>
<!-- confirmacionServicio&#45;&gt;AppModule -->
<g id="edge17" class="edge">
<title>confirmacionServicio&#45;&gt;AppModule</title>
<path fill="none" stroke="#000000" d="M370,-122.0449C370,-143.6623 370,-177 370,-177 370,-177 1411.1559,-177 1411.1559,-177"/>
<polygon fill="#000000" stroke="#000000" points="1411.1559,-180.5001 1421.1559,-177 1411.1559,-173.5001 1411.1559,-180.5001"/>
</g>
<!-- AlojamientoComponent  -->
<g id="node21" class="node">
<title>AlojamientoComponent </title>
<polygon fill="#fb8072" stroke="#000000" points="1463.3213,-252 1308.6787,-252 1308.6787,-216 1463.3213,-216 1463.3213,-252"/>
<text text-anchor="middle" x="1386" y="-229.8" font-family="Times,serif" font-size="14.00" fill="#000000">AlojamientoComponent </text>
</g>
<!-- AppModule&#45;&gt;AlojamientoComponent  -->
<g id="edge20" class="edge">
<title>AppModule&#45;&gt;AlojamientoComponent </title>
<path fill="none" stroke="#000000" stroke-dasharray="5,2" d="M1442.2912,-187.1061C1442.2912,-187.1061 1442.2912,-205.991 1442.2912,-205.991"/>
<polygon fill="#000000" stroke="#000000" points="1438.7913,-205.9909 1442.2912,-215.991 1445.7913,-205.991 1438.7913,-205.9909"/>
</g>
<!-- AppComponent  -->
<g id="node22" class="node">
<title>AppComponent </title>
<polygon fill="#80b1d3" stroke="#000000" points="1595.439,-252 1486.561,-252 1486.561,-216 1595.439,-216 1595.439,-252"/>
<text text-anchor="middle" x="1541" y="-229.8" font-family="Times,serif" font-size="14.00" fill="#000000">AppComponent </text>
</g>
<!-- AppModule&#45;&gt;AppComponent  -->
<g id="edge21" class="edge">
<title>AppModule&#45;&gt;AppComponent </title>
<path fill="none" stroke="#000000" stroke-dasharray="1,5" d="M1495.6793,-187.1061C1495.6793,-187.1061 1495.6793,-205.991 1495.6793,-205.991"/>
<polygon fill="#000000" stroke="#000000" points="1492.1794,-205.9909 1495.6793,-215.991 1499.1794,-205.991 1492.1794,-205.9909"/>
</g>
<!-- AppRoutingModule -->
<g id="node19" class="node">
<title>AppRoutingModule</title>
<polygon fill="#8dd3c7" stroke="#000000" points="277.2744,-122 274.2744,-126 253.2744,-126 250.2744,-122 148.7256,-122 148.7256,-86 277.2744,-86 277.2744,-122"/>
<text text-anchor="middle" x="213" y="-99.8" font-family="Times,serif" font-size="14.00" fill="#000000">AppRoutingModule</text>
</g>
<!-- AppRoutingModule&#45;&gt;AppModule -->
<g id="edge18" class="edge">
<title>AppRoutingModule&#45;&gt;AppModule</title>
<path fill="none" stroke="#000000" d="M213,-122.0109C213,-144.4852 213,-180 213,-180 213,-180 1411.0528,-180 1411.0528,-180"/>
<polygon fill="#000000" stroke="#000000" points="1411.0529,-183.5001 1421.0528,-180 1411.0528,-176.5001 1411.0529,-183.5001"/>
</g>
<!-- MaterialModule -->
<g id="node20" class="node">
<title>MaterialModule</title>
<polygon fill="#8dd3c7" stroke="#000000" points="130.4706,-122 127.4706,-126 106.4706,-126 103.4706,-122 23.5294,-122 23.5294,-86 130.4706,-86 130.4706,-122"/>
<text text-anchor="middle" x="77" y="-99.8" font-family="Times,serif" font-size="14.00" fill="#000000">MaterialModule</text>
</g>
<!-- MaterialModule&#45;&gt;AppModule -->
<g id="edge19" class="edge">
<title>MaterialModule&#45;&gt;AppModule</title>
<path fill="none" stroke="#000000" d="M77,-122.1532C77,-145.7566 77,-184 77,-184 77,-184 1411.1422,-184 1411.1422,-184"/>
<polygon fill="#000000" stroke="#000000" points="1411.1422,-187.5001 1421.1422,-184 1411.1421,-180.5001 1411.1422,-187.5001"/>
</g>
</g>
</svg>
